<svg id="Ebene_1" data-name="Ebene 1" xmlns="http://www.w3.org/2000/svg" xmlns:xlink="http://www.w3.org/1999/xlink" viewBox="0 0 1450 817"><rect x="0.5" y="0.5" width="1449" height="816" style="fill:#e6e6e6"/><path d="M1745,141V956H297V141H1745m1-1H296V957H1746V140Z" transform="translate(-296 -140)"/><rect x="0.5" y="0.5" width="1449" height="36" style="fill:#ccc;stroke:#000;stroke-miterlimit:10"/><rect x="1413.5" y="0.5" width="36" height="36" style="fill:#ff645f;stroke:#000;stroke-miterlimit:10"/><rect x="1377.5" y="0.5" width="36" height="36" style="fill:none;stroke:#000;stroke-miterlimit:10"/><rect x="1341.5" y="0.5" width="36" height="36" style="fill:none;stroke:#000;stroke-miterlimit:10"/><rect x="1386.5" y="9.5" width="19" height="19" style="fill:none;stroke:#000;stroke-miterlimit:10;stroke-width:3px"/><polygon points="1439.28 9.31 1431.5 17.09 1423.72 9.31 1422.31 10.72 1430.09 18.5 1422.31 26.28 1423.72 27.69 1431.5 19.91 1439.28 27.69 1440.69 26.28 1432.91 18.5 1440.69 10.72 1439.28 9.31" style="stroke:#000;stroke-miterlimit:10"/><rect x="1348.5" y="25.5" width="22" height="3"/><path d="M1666,166v2h-21v-2h21m1-1h-23v4h23v-4Z" transform="translate(-296 -140)"/><text transform="translate(9.63 25.59)" style="font-size:21px;font-family:MyriadPro-Regular, Myriad Pro"><tspan style="letter-spacing:-0.006975446428571429em">E</tspan><tspan x="10.19" y="0" style="letter-spacing:-0.00999813988095238em">v</tspan><tspan x="20.08" y="0">e</tspan><tspan x="30.6" y="0" style="letter-spacing:-0.003999255952380952em">n</tspan><tspan x="42.17" y="0" style="letter-spacing:0.000023251488095238094em">t </tspan><tspan x="53.57" y="0" style="letter-spacing:-0.00499906994047619em">P</tspan><tspan x="64.64" y="0">lanner</tspan></text><rect x="11" y="47" width="646" height="715" style="fill:#bbe2f0;stroke:#000;stroke-miterlimit:10;stroke-width:2px"/><image width="2000" height="1052" transform="translate(13 49) scale(0.32)" xlink:href="../../../../Downloads/literaturhaus-hochzeitsfest-header-04.jpg"/><rect x="13" y="49" width="642" height="337.69" style="fill:none;stroke:#000;stroke-width:2px"/><text transform="translate(24.4 426.09)" style="font-size:27px;font-family:MyriadPro-Regular, Myriad Pro">Hoch<tspan x="59.51" y="0" style="letter-spacing:-0.006980613425925926em">z</tspan><tspan x="70.87" y="0">eit - Janina und </tspan><tspan x="248.23" y="0" style="letter-spacing:0.011990017361111112em">M</tspan><tspan x="270.27" y="0">ichael Hü</tspan><tspan x="374.78" y="0" style="letter-spacing:0.023980034722222224em">r</tspan><tspan x="384.26" y="0" style="letter-spacing:-0.006004050925925926em">t</tspan><tspan x="393.03" y="0">gen</tspan></text><text transform="translate(26.89 462.78)" style="font-size:21px;font-family:MyriadPro-Regular, Myriad Pro"><tspan style="text-decoration:underline;letter-spacing:-0.0029994419642857145em">S</tspan><tspan x="10.29" y="0" style="text-decoration:underline;letter-spacing:0.000023251488095238094em">ta</tspan><tspan x="27.36" y="0" style="text-decoration:underline;letter-spacing:0.023995535714285716em">r</tspan><tspan x="34.73" y="0" style="text-decoration:underline;letter-spacing:0.000023251488095238094em">t:</tspan><tspan x="46.03" y="0" xml:space="preserve"> 15. </tspan><tspan x="80.83" y="0" style="letter-spacing:-0.011997767857142858em">A</tspan><tspan x="93.43" y="0" xml:space="preserve">ugust 2021  8:00</tspan></text><text transform="translate(26.51 490.27)" style="font-size:21px;font-family:MyriadPro-Regular, Myriad Pro"><tspan style="text-decoration:underline">Ende:</tspan><tspan x="48.7" y="0" xml:space="preserve"> 16. </tspan><tspan x="83.49" y="0" style="letter-spacing:-0.011997767857142858em">A</tspan><tspan x="96.09" y="0" xml:space="preserve">ugust 2021  3:00</tspan></text><text transform="translate(26.22 525.11)" style="font-size:21px;font-family:MyriadPro-Regular, Myriad Pro;text-decoration:underline"><tspan style="letter-spacing:-0.0029994419642857145em">A</tspan><tspan x="12.79" y="0">nsp</tspan><tspan x="44.71" y="0" style="letter-spacing:-0.009974888392857142em">r</tspan><tspan x="51.37" y="0">echpersonen:</tspan></text><text x="-296" y="-140"/><text transform="translate(26.67 553.78)" style="font-size:21px;font-family:MyriadPro-Regular, Myriad Pro"><tspan style="letter-spacing:0.011997767857142858em">M</tspan><tspan x="17.14" y="0" style="letter-spacing:-0.000023251488095238094em">ichael Hü</tspan><tspan x="98.43" y="0" style="letter-spacing:0.023995535714285716em">r</tspan><tspan x="105.8" y="0" style="letter-spacing:-0.00597563244047619em">t</tspan><tspan x="112.62" y="0">gen -</tspan><tspan x="157.43" y="0" style="letter-spacing:-0.04099237351190476em"> </tspan><tspan x="161.02" y="0" style="letter-spacing:-0.0709867931547619em">T</tspan><tspan x="169.97" y="0" style="letter-spacing:-0.000023251488095238094em">e</tspan><tspan x="180.49" y="0" style="letter-spacing:-0.00999813988095238em">l</tspan><tspan x="185.24" y="0">.: +49 1515 0725461</tspan></text><text transform="translate(26.92 578.27)" style="font-size:21px;font-family:MyriadPro-Regular, Myriad Pro">Janina <tspan x="60.69" y="0" style="letter-spacing:0.00999813988095238em">K</tspan><tspan x="72.28" y="0">laaß -</tspan><tspan x="119.89" y="0" style="letter-spacing:-0.04096912202380952em"> </tspan><tspan x="123.48" y="0" style="letter-spacing:-0.07101004464285714em">T</tspan><tspan x="132.42" y="0">e</tspan><tspan x="142.94" y="0" style="letter-spacing:-0.01002139136904762em">l</tspan><tspan x="147.69" y="0">.: +49 1601 122457</tspan></text><text transform="translate(26.69 614.27)" style="font-size:21px;font-family:MyriadPro-Regular, Myriad Pro;text-decoration:underline"><tspan style="letter-spacing:-0.005998883928571429em">K</tspan><tspan x="11.26" y="0">u</tspan><tspan x="22.83" y="0" style="letter-spacing:0.008998325892857142em">r</tspan><tspan x="29.88" y="0">zbesch</tspan><tspan x="90.72" y="0" style="letter-spacing:-0.00999813988095238em">r</tspan><tspan x="97.38" y="0">eibung:</tspan></text><text transform="translate(26.92 645.27)" style="font-size:21px;font-family:MyriadPro-Regular, Myriad Pro"><tspan style="letter-spacing:0.011997767857142858em">M</tspan><tspan x="17.14" y="0" style="letter-spacing:-0.000023251488095238094em">ichael und Janina möc</tspan><tspan x="211.82" y="0" style="letter-spacing:-0.003976004464285714em">h</tspan><tspan x="223.4" y="0" style="letter-spacing:-0.005998883928571429em">t</tspan><tspan x="230.22" y="0">en im </tspan><tspan x="283.73" y="0" style="letter-spacing:-0.011997767857142858em">A</tspan><tspan x="296.33" y="0">ugust </tspan><tspan x="350.93" y="0" style="letter-spacing:0.016996837797619048em">k</tspan><tspan x="361.13" y="0">i</tspan><tspan x="366.05" y="0" style="letter-spacing:-0.009974888392857142em">r</tspan><tspan x="372.7" y="0">chlich hei</tspan><tspan x="456.24" y="0" style="letter-spacing:-0.00499906994047619em">r</tspan><tspan x="463" y="0" style="letter-spacing:-0.003999255952380952em">a</tspan><tspan x="473.04" y="0" style="letter-spacing:-0.00597563244047619em">t</tspan><tspan x="479.86" y="0" style="letter-spacing:-0.000023251488095238094em">en. Sie </tspan><tspan x="0" y="25.2" style="letter-spacing:-0.00999813988095238em">w</tspan><tspan x="15.25" y="25.2" style="letter-spacing:-0.000023251488095238094em">e</tspan><tspan x="25.77" y="25.2" style="letter-spacing:-0.009974888392857142em">r</tspan><tspan x="32.42" y="25.2">den mit ungefähr 50 </tspan><tspan x="215.44" y="25.2" style="letter-spacing:-0.024995349702380952em">P</tspan><tspan x="226.08" y="25.2">ersonen </tspan><tspan x="301.6" y="25.2" style="letter-spacing:-0.012997581845238096em">f</tspan><tspan x="307.46" y="25.2">eie</tspan><tspan x="333.41" y="25.2" style="letter-spacing:0.003999255952380952em">r</tspan><tspan x="340.36" y="25.2" style="letter-spacing:0.000023251488095238094em">n und h</tspan><tspan x="407.65" y="25.2" style="letter-spacing:-0.003999255952380952em">ä</tspan><tspan x="417.68" y="25.2">t</tspan><tspan x="424.63" y="25.2" style="letter-spacing:-0.005998883928571429em">t</tspan><tspan x="431.46" y="25.2">en als </tspan><tspan x="485.93" y="25.2" style="letter-spacing:-0.013997395833333334em">L</tspan><tspan x="495.55" y="25.2" style="letter-spacing:0.000023251488095238094em">oc</tspan><tspan x="516.49" y="25.2" style="letter-spacing:-0.003999255952380952em">a</tspan><tspan x="526.53" y="25.2">tion </tspan><tspan x="0" y="50.4">ge</tspan><tspan x="22.26" y="50.4" style="letter-spacing:0.003999255952380952em">r</tspan><tspan x="29.21" y="50.4">ne eine Diskothe</tspan><tspan x="175.62" y="50.4" style="letter-spacing:0.013997395833333334em">k</tspan><tspan x="185.76" y="50.4">.</tspan></text><text transform="translate(26.38 734.16)" style="font-size:21px;font-family:MyriadPro-Regular, Myriad Pro;text-decoration:underline;letter-spacing:-0.0029994419642857145em">S<tspan x="10.29" y="0" style="letter-spacing:0.000023251488095238094em">t</tspan><tspan x="17.24" y="0" style="letter-spacing:-0.00402250744047619em">a</tspan><tspan x="27.28" y="0" style="letter-spacing:0.000023251488095238094em">tus:</tspan></text><text transform="translate(92.81 733.16)" style="font-size:21px;fill:#c47c17;font-family:MyriadPro-Regular, Myriad Pro">gepla<tspan x="49.29" y="0" style="letter-spacing:-0.003999255952380952em">n</tspan><tspan x="60.86" y="0">t</tspan></text><rect x="668" y="47" width="772" height="715" style="fill:#bbe2f0;stroke:#000;stroke-miterlimit:10;stroke-width:2px"/><rect x="784" y="47" width="656" height="35" style="fill:#ccc;stroke:#000;stroke-miterlimit:10;stroke-width:2px"/><rect x="784" y="53" width="87" height="29" style="fill:#e6e6e6;stroke:#000;stroke-miterlimit:10;stroke-width:2px"/><text transform="translate(683.44 71.44)" style="font-size:21px;font-family:MyriadPro-Regular, Myriad Pro">Eleme<tspan x="53.84" y="0" style="letter-spacing:-0.003999255952380952em">n</tspan><tspan x="65.41" y="0" style="letter-spacing:-0.005998883928571429em">t</tspan><tspan x="72.24" y="0">e</tspan></text><text transform="translate(795.91 75.16)" style="font-size:21px;font-family:MyriadPro-Regular, Myriad Pro;letter-spacing:0.003999255952380952em">D<tspan x="14.07" y="0" style="letter-spacing:0.00004650297619047619em">etails</tspan></text><rect x="1242" y="724" width="191" height="30" style="fill:#abd18f;stroke:#000;stroke-miterlimit:10;stroke-width:2px"/><text transform="translate(1248.48 746.52)" style="font-size:21px;font-family:MyriadPro-Regular, Myriad Pro">Eleme<tspan x="53.84" y="0" style="letter-spacing:-0.003999255952380952em">n</tspan><tspan x="65.41" y="0">t hinzufügen</tspan></text><rect x="1418" y="82" width="22" height="635" style="fill:#b3b3b3;stroke:#000;stroke-miterlimit:10;stroke-width:2px"/><rect x="1418" y="87" width="22" height="144" style="fill:#e6e6e6;stroke:#000;stroke-miterlimit:10;stroke-width:2px"/><rect x="682" y="93" width="724" height="306" style="fill:#e6e6e6;stroke:#000;stroke-miterlimit:10;stroke-width:2px"/><text transform="translate(687.96 114.04)" style="font-size:21px;font-family:MyriadPro-Regular, Myriad Pro"><tspan style="letter-spacing:-0.013997395833333334em">L</tspan><tspan x="9.62" y="0" style="letter-spacing:-0.00004650297619047619em">oc</tspan><tspan x="30.55" y="0" style="letter-spacing:-0.003999255952380952em">a</tspan><tspan x="40.59" y="0">tion</tspan></text><line x1="682" y1="120" x2="1406" y2="120" style="fill:none;stroke:#000;stroke-miterlimit:10;stroke-width:2px"/><rect x="1379" y="93" width="27" height="27" style="fill:#ef7a76;stroke:#000;stroke-miterlimit:10;stroke-width:2px"/><path d="M1682.13,242.58V255h12.42V242.58Zm3.45,9.66a.69.69,0,1,1-1.38,0v-6.9a.69.69,0,1,1,1.38,0Zm3.45,0a.69.69,0,0,1-1.38,0v-6.9a.69.69,0,0,1,1.38,0Zm3.45,0a.69.69,0,0,1-1.38,0v-6.9a.69.69,0,1,1,1.38,0Zm2.76-12.42v1.38h-13.8v-1.38h3.94c.62,0,1.13-.75,1.13-1.38h3.67c0,.63.5,1.38,1.12,1.38Z" transform="translate(-296 -140)"/><image width="1024" height="684" transform="translate(688 126) scale(0.32)" xlink:href="../../../../Downloads/media.media.d124752e-9096-42a1-b1cd-96401bc79116.original1024.jpg"/><rect x="688" y="126" width="323.37" height="216" style="fill:none;stroke:#1d1d1b;stroke-width:2px"/><text transform="translate(1036.04 143.93)" style="font-size:21px;font-family:MyriadPro-Regular, Myriad Pro">Diskothek <tspan x="92.02" y="0" style="letter-spacing:0.003999255952380952em">R</tspan><tspan x="103.4" y="0">olling </tspan><tspan x="157.6" y="0" style="letter-spacing:-0.002976190476190476em">S</tspan><tspan x="167.89" y="0" style="letter-spacing:-0.006045386904761905em">t</tspan><tspan x="174.72" y="0">one</tspan></text><text transform="translate(1036.11 168.08)" style="font-size:21px;font-family:MyriadPro-Regular, Myriad Pro"><tspan style="text-decoration:underline;letter-spacing:-0.0029994419642857145em">S</tspan><tspan x="10.29" y="0" style="text-decoration:underline;letter-spacing:0.000023251488095238094em">ta</tspan><tspan x="27.36" y="0" style="text-decoration:underline;letter-spacing:0.023995535714285716em">r</tspan><tspan x="34.73" y="0" style="text-decoration:underline;letter-spacing:0.000023251488095238094em">t:</tspan><tspan x="46.03" y="0" xml:space="preserve"> 15. </tspan><tspan x="80.83" y="0" style="letter-spacing:-0.011997767857142858em">A</tspan><tspan x="93.43" y="0" xml:space="preserve">ugust 2021  16:00</tspan></text><text transform="translate(1035.73 195.58)" style="font-size:21px;font-family:MyriadPro-Regular, Myriad Pro"><tspan style="text-decoration:underline">Ende:</tspan><tspan x="48.7" y="0" xml:space="preserve"> 16. </tspan><tspan x="83.49" y="0" style="letter-spacing:-0.011997767857142858em">A</tspan><tspan x="96.09" y="0" xml:space="preserve">ugust 2021  3:00</tspan></text><text transform="translate(1034.92 226.5)" style="font-size:21px;font-family:MyriadPro-Regular, Myriad Pro;text-decoration:underline"><tspan style="letter-spacing:-0.0029994419642857145em">A</tspan><tspan x="12.79" y="0">nsp</tspan><tspan x="44.71" y="0" style="letter-spacing:-0.009974888392857142em">r</tspan><tspan x="51.37" y="0">echpersonen:</tspan></text><text transform="translate(1035.37 255.16)" style="font-size:21px;font-family:MyriadPro-Regular, Myriad Pro">He<tspan x="24.21" y="0" style="letter-spacing:0.003999255952380952em">r</tspan><tspan x="31.16" y="0">r </tspan><tspan x="42.48" y="0" style="letter-spacing:0.00597563244047619em">M</tspan><tspan x="59.49" y="0">eier -</tspan><tspan x="103.21" y="0" style="letter-spacing:-0.04096912202380952em"> </tspan><tspan x="106.8" y="0" style="letter-spacing:-0.07101004464285714em">T</tspan><tspan x="115.75" y="0">e</tspan><tspan x="126.27" y="0" style="letter-spacing:-0.01002139136904762em">l</tspan><tspan x="131.02" y="0">.: +49 1760 0725461</tspan></text><rect x="681.89" y="420.17" width="724.11" height="263.83" style="fill:#e6e6e6;stroke:#000;stroke-miterlimit:10;stroke-width:2px"/><text transform="translate(686.85 441.2)" style="font-size:21px;font-family:MyriadPro-Regular, Myriad Pro"><tspan style="letter-spacing:-0.006975446428571429em">C</tspan><tspan x="12.03" y="0" style="letter-spacing:-0.003999255952380952em">a</tspan><tspan x="22.07" y="0" style="letter-spacing:-0.006045386904761905em">t</tspan><tspan x="28.9" y="0" style="letter-spacing:0.00004650297619047619em">e</tspan><tspan x="39.42" y="0" style="letter-spacing:0.003952752976190476em">r</tspan><tspan x="46.37" y="0">ing</tspan></text><line x1="681.89" y1="447.17" x2="1405.89" y2="447.17" style="fill:none;stroke:#000;stroke-miterlimit:10;stroke-width:2px"/><rect x="1378.89" y="420.17" width="27" height="27" style="fill:#ef7a76;stroke:#000;stroke-miterlimit:10;stroke-width:2px"/><path d="M1682,569.75v12.42h12.42V569.75Zm3.45,9.66a.69.69,0,1,1-1.38,0v-6.9a.69.69,0,0,1,1.38,0Zm3.45,0a.69.69,0,0,1-1.38,0v-6.9a.69.69,0,0,1,1.38,0Zm3.45,0a.69.69,0,1,1-1.38,0v-6.9a.69.69,0,1,1,1.38,0Zm2.76-12.42v1.38h-13.8V567h3.94c.62,0,1.13-.76,1.13-1.38h3.66c0,.62.51,1.38,1.13,1.38Z" transform="translate(-296 -140)"/><text transform="translate(1035.93 471.09)" style="font-size:21px;font-family:MyriadPro-Regular, Myriad Pro">Hö<tspan x="25.22" y="0" style="letter-spacing:0.003999255952380952em">r</tspan><tspan x="32.17" y="0" style="letter-spacing:-0.00004650297619047619em">ner </tspan><tspan x="65.67" y="0" style="letter-spacing:0.003999255952380952em">D</tspan><tspan x="79.74" y="0" style="letter-spacing:0.00004650297619047619em">eli</tspan><tspan x="100.13" y="0" style="letter-spacing:0.017996651785714284em">k</tspan><tspan x="110.35" y="0" style="letter-spacing:-0.003999255952380952em">a</tspan><tspan x="120.39" y="0" style="letter-spacing:-0.005998883928571429em">t</tspan><tspan x="127.22" y="0">ess</tspan></text><text transform="translate(1036 495.25)" style="font-size:21px;font-family:MyriadPro-Regular, Myriad Pro"><tspan style="text-decoration:underline;letter-spacing:-0.0029994419642857145em">S</tspan><tspan x="10.29" y="0" style="text-decoration:underline;letter-spacing:0.000023251488095238094em">ta</tspan><tspan x="27.36" y="0" style="text-decoration:underline;letter-spacing:0.023995535714285716em">r</tspan><tspan x="34.73" y="0" style="text-decoration:underline;letter-spacing:0.000023251488095238094em">t:</tspan><tspan x="46.03" y="0" xml:space="preserve"> 15. </tspan><tspan x="80.83" y="0" style="letter-spacing:-0.011997767857142858em">A</tspan><tspan x="93.43" y="0" xml:space="preserve">ugust 2021  15:30</tspan></text><text transform="translate(1035.62 522.75)" style="font-size:21px;font-family:MyriadPro-Regular, Myriad Pro"><tspan style="text-decoration:underline">Ende:</tspan><tspan x="48.7" y="0" xml:space="preserve"> 15. </tspan><tspan x="83.49" y="0" style="letter-spacing:-0.011997767857142858em">A</tspan><tspan x="96.09" y="0" xml:space="preserve">ugust 2021  18:00</tspan></text><text transform="translate(1034.81 553.66)" style="font-size:21px;font-family:MyriadPro-Regular, Myriad Pro;text-decoration:underline"><tspan style="letter-spacing:-0.0029994419642857145em">A</tspan><tspan x="12.79" y="0">nsp</tspan><tspan x="44.71" y="0" style="letter-spacing:-0.009974888392857142em">r</tspan><tspan x="51.37" y="0">echpersonen:</tspan></text><text transform="translate(1035.26 582.33)" style="font-size:21px;font-family:MyriadPro-Regular, Myriad Pro"><tspan style="letter-spacing:-0.025995163690476192em">F</tspan><tspan x="9.68" y="0" style="letter-spacing:-0.004975818452380952em">r</tspan><tspan x="16.44" y="0">au</tspan><tspan x="38.14" y="0" style="letter-spacing:-0.04096912202380952em"> </tspan><tspan x="41.73" y="0" style="letter-spacing:-0.07101004464285714em">T</tspan><tspan x="50.67" y="0" style="letter-spacing:-0.000023251488095238094em">euer -</tspan><tspan x="101.05" y="0" style="letter-spacing:-0.04096912202380952em"> </tspan><tspan x="104.64" y="0" style="letter-spacing:-0.07101004464285714em">T</tspan><tspan x="113.59" y="0" style="letter-spacing:-0.000023251488095238094em">e</tspan><tspan x="124.11" y="0" style="letter-spacing:-0.00999813988095238em">l</tspan><tspan x="128.85" y="0">.: +49 0800 1122447</tspan></text><rect x="688" y="454" width="324.37" height="208" style="fill:none;stroke:#1d1d1b;stroke-width:2px"/><rect x="1323" y="359" width="76" height="33" style="fill:#ccc;stroke:#000;stroke-miterlimit:10;stroke-width:2px"/><text transform="translate(1331.22 382.59)" style="font-size:21px;font-family:MyriadPro-Regular, Myriad Pro;letter-spacing:0.003999255952380952em">D<tspan x="14.07" y="0" style="letter-spacing:0.00004650297619047619em">etails</tspan></text><rect x="1323" y="644" width="76" height="33" style="fill:#ccc;stroke:#000;stroke-miterlimit:10;stroke-width:2px"/><text transform="translate(1331.22 667.59)" style="font-size:21px;font-family:MyriadPro-Regular, Myriad Pro;letter-spacing:0.003999255952380952em">D<tspan x="14.07" y="0" style="letter-spacing:0.00004650297619047619em">etails</tspan></text><rect x="11" y="773" width="78" height="33" style="fill:#ccc;stroke:#000;stroke-miterlimit:10;stroke-width:2px"/><text transform="translate(19.22 796.59)" style="font-size:21px;font-family:MyriadPro-Regular, Myriad Pro"><tspan style="letter-spacing:-0.007021949404761905em">Z</tspan><tspan x="11.47" y="0">urück</tspan></text><rect x="1229" y="359" width="83" height="33" style="fill:#ccc;stroke:#000;stroke-miterlimit:10;stroke-width:2px"/><text transform="translate(1237.22 382.59)" style="font-size:21px;font-family:MyriadPro-Regular, Myriad Pro"><tspan style="letter-spacing:-0.002976190476190476em">Ä</tspan><tspan x="12.79" y="0">nde</tspan><tspan x="46.81" y="0" style="letter-spacing:0.003999255952380952em">r</tspan><tspan x="53.76" y="0" style="letter-spacing:-0.00004650297619047619em">n</tspan></text><rect x="1230" y="644" width="83" height="33" style="fill:#ccc;stroke:#000;stroke-miterlimit:10;stroke-width:2px"/><text transform="translate(1238.22 667.59)" style="font-size:21px;font-family:MyriadPro-Regular, Myriad Pro"><tspan style="letter-spacing:-0.002976190476190476em">Ä</tspan><tspan x="12.79" y="0">nde</tspan><tspan x="46.81" y="0" style="letter-spacing:0.003999255952380952em">r</tspan><tspan x="53.76" y="0" style="letter-spacing:-0.00004650297619047619em">n</tspan></text><text transform="translate(1036.92 283.61)" style="font-size:21px;font-family:MyriadPro-Regular, Myriad Pro;text-decoration:underline"><tspan style="letter-spacing:-0.011997767857142858em">A</tspan><tspan x="12.6" y="0">d</tspan><tspan x="24.44" y="0" style="letter-spacing:-0.009974888392857142em">r</tspan><tspan x="31.1" y="0">esse:</tspan></text><text transform="translate(1037.37 312.27)" style="font-size:21px;font-family:MyriadPro-Regular, Myriad Pro"><tspan style="letter-spacing:0.00999813988095238em">I</tspan><tspan x="5.23" y="0" style="letter-spacing:-0.000023251488095238094em">m</tspan><tspan x="22.74" y="0" style="letter-spacing:-0.035970052083333336em"> </tspan><tspan x="26.44" y="0" style="letter-spacing:-0.015997023809523808em">W</tspan><tspan x="43.87" y="0">iesen</tspan><tspan x="89.79" y="0" style="letter-spacing:-0.005998883928571429em">g</tspan><tspan x="101.41" y="0" style="letter-spacing:0.000023251488095238094em">rund 3</tspan><tspan x="0" y="25.2">54424 </tspan><tspan x="58.32" y="25.2" style="letter-spacing:-0.014997209821428572em">L</tspan><tspan x="67.91" y="25.2">ückenbu</tspan><tspan x="144.44" y="25.2" style="letter-spacing:-0.007998511904761904em">r</tspan><tspan x="151.13" y="25.2">g</tspan></text><rect x="871" y="53" width="87" height="29" style="fill:#e6e6e6;stroke:#000;stroke-miterlimit:10;stroke-width:2px"/><text transform="translate(885.11 75.16)" style="font-size:21px;font-family:MyriadPro-Regular, Myriad Pro">Kos<tspan x="31.23" y="0" style="letter-spacing:-0.005998883928571429em">t</tspan><tspan x="38.05" y="0">en</tspan></text><rect x="958" y="53" width="123" height="29" style="fill:#e6e6e6;stroke:#000;stroke-miterlimit:10;stroke-width:2px"/><text transform="translate(975.18 75.16)" style="font-size:21px;font-family:MyriadPro-Regular, Myriad Pro"><tspan style="letter-spacing:0.00999813988095238em">H</tspan><tspan x="13.9" y="0">il</tspan><tspan x="23.77" y="0" style="letter-spacing:-0.008975074404761904em">f</tspan><tspan x="29.71" y="0">smit</tspan><tspan x="67.41" y="0" style="letter-spacing:-0.005998883928571429em">t</tspan><tspan x="74.23" y="0">el</tspan></text><rect x="635" y="387" width="22" height="375" style="fill:#b3b3b3;stroke:#000;stroke-miterlimit:10;stroke-width:2px"/><rect x="635" y="392" width="22" height="227" style="fill:#e6e6e6;stroke:#000;stroke-miterlimit:10;stroke-width:2px"/></svg>