<svg id="Ebene_1" data-name="Ebene 1" xmlns="http://www.w3.org/2000/svg" xmlns:xlink="http://www.w3.org/1999/xlink" viewBox="0 0 1450 817"><rect x="0.5" y="0.5" width="1449" height="816" style="fill:#e6e6e6"/><path d="M1745,141V956H297V141H1745m1-1H296V957H1746V140Z" transform="translate(-296 -140)"/><rect x="0.5" y="0.5" width="1449" height="36" style="fill:#ccc;stroke:#000;stroke-miterlimit:10"/><rect x="1413.5" y="0.5" width="36" height="36" style="fill:#ff645f;stroke:#000;stroke-miterlimit:10"/><rect x="1377.5" y="0.5" width="36" height="36" style="fill:none;stroke:#000;stroke-miterlimit:10"/><rect x="1341.5" y="0.5" width="36" height="36" style="fill:none;stroke:#000;stroke-miterlimit:10"/><rect x="1386.5" y="9.5" width="19" height="19" style="fill:none;stroke:#000;stroke-miterlimit:10;stroke-width:3px"/><polygon points="1439.28 9.31 1431.5 17.09 1423.72 9.31 1422.31 10.72 1430.09 18.5 1422.31 26.28 1423.72 27.69 1431.5 19.91 1439.28 27.69 1440.69 26.28 1432.91 18.5 1440.69 10.72 1439.28 9.31" style="stroke:#000;stroke-miterlimit:10"/><rect x="1348.5" y="25.5" width="22" height="3"/><path d="M1666,166v2h-21v-2h21m1-1h-23v4h23v-4Z" transform="translate(-296 -140)"/><text transform="translate(9.63 25.59)" style="font-size:21px;font-family:MyriadPro-Regular, Myriad Pro"><tspan style="letter-spacing:-0.006975446428571429em">E</tspan><tspan x="10.19" y="0" style="letter-spacing:-0.00999813988095238em">v</tspan><tspan x="20.08" y="0">e</tspan><tspan x="30.6" y="0" style="letter-spacing:-0.003999255952380952em">n</tspan><tspan x="42.17" y="0" style="letter-spacing:0.000023251488095238094em">t </tspan><tspan x="53.57" y="0" style="letter-spacing:-0.00499906994047619em">P</tspan><tspan x="64.64" y="0">lanner - </tspan><tspan x="135.76" y="0" style="letter-spacing:-0.013997395833333334em">L</tspan><tspan x="145.38" y="0">oc</tspan><tspan x="166.32" y="0" style="letter-spacing:-0.00402250744047619em">a</tspan><tspan x="176.36" y="0" style="letter-spacing:0.000023251488095238094em">tion ände</tspan><tspan x="260" y="0" style="letter-spacing:0.003999255952380952em">r</tspan><tspan x="266.95" y="0">n</tspan></text><text x="-296" y="-140"/><rect x="11" y="47" width="1429" height="715" style="fill:#bbe2f0;stroke:#000;stroke-miterlimit:10;stroke-width:2px"/><rect x="113" y="47" width="1327" height="35" style="fill:#ccc;stroke:#000;stroke-miterlimit:10;stroke-width:2px"/><rect x="113" y="53" width="142" height="29" style="fill:#e6e6e6;stroke:#000;stroke-miterlimit:10;stroke-width:2px"/><text transform="translate(23.44 71.44)" style="font-size:21px;font-family:MyriadPro-Regular, Myriad Pro"><tspan style="letter-spacing:-0.013997395833333334em">L</tspan><tspan x="9.62" y="0" style="letter-spacing:-0.00004650297619047619em">oc</tspan><tspan x="30.55" y="0" style="letter-spacing:-0.003999255952380952em">a</tspan><tspan x="40.59" y="0">tion</tspan></text><text transform="translate(135.91 75.16)" style="font-size:21px;font-family:MyriadPro-Regular, Myriad Pro"><tspan style="letter-spacing:0.00999813988095238em">H</tspan><tspan x="13.9" y="0">il</tspan><tspan x="23.77" y="0" style="letter-spacing:-0.008975074404761904em">f</tspan><tspan x="29.71" y="0">smit</tspan><tspan x="67.41" y="0" style="letter-spacing:-0.005998883928571429em">t</tspan><tspan x="74.23" y="0">el</tspan></text><rect x="11" y="773" width="78" height="33" style="fill:#ccc;stroke:#000;stroke-miterlimit:10;stroke-width:2px"/><text transform="translate(19.22 796.59)" style="font-size:21px;font-family:MyriadPro-Regular, Myriad Pro"><tspan style="letter-spacing:-0.007021949404761905em">Z</tspan><tspan x="11.47" y="0">urück</tspan></text><rect x="1418" y="82" width="22" height="680" style="fill:#b3b3b3;stroke:#000;stroke-miterlimit:10;stroke-width:2px"/><rect x="1418" y="87.35" width="22" height="154.2" style="fill:#e6e6e6;stroke:#000;stroke-miterlimit:10;stroke-width:2px"/><image width="1024" height="684" transform="translate(23 94) scale(0.44)" xlink:href="../../../../Downloads/media.media.d124752e-9096-42a1-b1cd-96401bc79116.original1024.jpg"/><rect x="23" y="94" width="452.12" height="302" style="fill:none;stroke:#1d1d1b;stroke-width:2px"/><rect x="23" y="467" width="163" height="33" style="fill:#ccc;stroke:#000;stroke-miterlimit:10;stroke-width:2px"/><text transform="translate(31.22 490.59)" style="font-size:21px;font-family:MyriadPro-Regular, Myriad Pro">Bild aus<tspan x="67.56" y="0" style="letter-spacing:-0.003999255952380952em">w</tspan><tspan x="82.93" y="0">ählen...</tspan></text><rect x="1338" y="774" width="102" height="32" style="fill:#abd18f;stroke:#000;stroke-miterlimit:10;stroke-width:2px"/><text transform="translate(1345.48 797.52)" style="font-size:21px;font-family:MyriadPro-Regular, Myriad Pro">Speiche<tspan x="69.32" y="0" style="letter-spacing:0.003952752976190476em">r</tspan><tspan x="76.27" y="0">n</tspan></text><text transform="translate(492.59 119.05)" style="font-size:21px;font-family:MyriadPro-Regular, Myriad Pro">Name:</text><rect x="560" y="97" width="424" height="33" style="fill:#f2f2f2;stroke:#000;stroke-miterlimit:10;stroke-width:2px"/><text transform="translate(568.22 120.59)" style="font-size:21px;font-family:MyriadPro-Regular, Myriad Pro">Diskothek <tspan x="92.02" y="0" style="letter-spacing:0.003999255952380952em">R</tspan><tspan x="103.4" y="0">olling </tspan><tspan x="157.6" y="0" style="letter-spacing:-0.002976190476190476em">S</tspan><tspan x="167.89" y="0" style="letter-spacing:-0.006045386904761905em">t</tspan><tspan x="174.72" y="0">one</tspan></text><text transform="translate(492.59 162.05)" style="font-size:21px;font-family:MyriadPro-Regular, Myriad Pro;letter-spacing:-0.0029994419642857145em">S<tspan x="10.29" y="0" style="letter-spacing:0.000023251488095238094em">ta</tspan><tspan x="27.36" y="0" style="letter-spacing:0.023995535714285716em">r</tspan><tspan x="34.73" y="0" style="letter-spacing:0.000023251488095238094em">t:</tspan></text><rect x="560" y="140" width="424" height="33" style="fill:#f2f2f2;stroke:#000;stroke-miterlimit:10;stroke-width:2px"/><text transform="translate(567.11 161.89)" style="font-size:21px;font-family:MyriadPro-Regular, Myriad Pro">15. <tspan x="30.34" y="0" style="letter-spacing:-0.011997767857142858em">A</tspan><tspan x="42.94" y="0" xml:space="preserve">ugust 2021  16:00</tspan></text><rect x="953" y="140" width="31" height="33" style="fill:#ccc;stroke:#000;stroke-miterlimit:10;stroke-width:2px"/><text transform="translate(962.22 163.59)" style="font-size:21px;font-family:MyriadPro-Regular, Myriad Pro">...</text><text transform="translate(492.59 205.05)" style="font-size:21px;font-family:MyriadPro-Regular, Myriad Pro">Ende:</text><rect x="560" y="183" width="424" height="33" style="fill:#f2f2f2;stroke:#000;stroke-miterlimit:10;stroke-width:2px"/><text transform="translate(567.11 204.89)" style="font-size:21px;font-family:MyriadPro-Regular, Myriad Pro">16. <tspan x="30.34" y="0" style="letter-spacing:-0.011997767857142858em">A</tspan><tspan x="42.94" y="0" xml:space="preserve">ugust 2021   3:00</tspan></text><rect x="953" y="183" width="31" height="33" style="fill:#ccc;stroke:#000;stroke-miterlimit:10;stroke-width:2px"/><text transform="translate(962.22 206.59)" style="font-size:21px;font-family:MyriadPro-Regular, Myriad Pro">...</text><text transform="translate(493.24 248.61)" style="font-size:21px;font-family:MyriadPro-Regular, Myriad Pro"><tspan style="letter-spacing:-0.0029994419642857145em">A</tspan><tspan x="12.79" y="0">nsp</tspan><tspan x="44.71" y="0" style="letter-spacing:-0.009974888392857142em">r</tspan><tspan x="51.37" y="0">echpersonen:</tspan></text><rect x="494" y="261" width="491" height="81" style="fill:#f2f2f2;stroke:#000;stroke-miterlimit:10;stroke-width:2px"/><text transform="translate(501.92 284.94)" style="font-size:21px;font-family:MyriadPro-Regular, Myriad Pro">He<tspan x="24.21" y="0" style="letter-spacing:0.003999255952380952em">r</tspan><tspan x="31.16" y="0">r </tspan><tspan x="42.48" y="0" style="letter-spacing:0.00597563244047619em">M</tspan><tspan x="59.49" y="0">eier -</tspan><tspan x="103.21" y="0" style="letter-spacing:-0.04096912202380952em"> </tspan><tspan x="106.8" y="0" style="letter-spacing:-0.07101004464285714em">T</tspan><tspan x="115.75" y="0">e</tspan><tspan x="126.27" y="0" style="letter-spacing:-0.01002139136904762em">l</tspan><tspan x="131.02" y="0">.: +49 1760 0725461</tspan></text><text transform="translate(492.92 386.5)" style="font-size:21px;font-family:MyriadPro-Regular, Myriad Pro"><tspan style="letter-spacing:-0.0029994419642857145em">S</tspan><tspan x="10.29" y="0" style="letter-spacing:0.000023251488095238094em">t</tspan><tspan x="17.24" y="0" style="letter-spacing:-0.00499906994047619em">r</tspan><tspan x="24" y="0">aße:</tspan></text><rect x="568" y="363" width="417" height="33" style="fill:#f2f2f2;stroke:#000;stroke-miterlimit:10;stroke-width:2px"/><text transform="translate(575.22 387.59)" style="font-size:21px;font-family:MyriadPro-Regular, Myriad Pro;letter-spacing:0.00999813988095238em">I<tspan x="5.23" y="0" style="letter-spacing:0.00004650297619047619em">m</tspan><tspan x="22.74" y="0" style="letter-spacing:-0.03603980654761905em"> </tspan><tspan x="26.44" y="0" style="letter-spacing:-0.015950520833333332em">W</tspan><tspan x="43.87" y="0" style="letter-spacing:-0.00004650297619047619em">iesen</tspan><tspan x="89.79" y="0" style="letter-spacing:-0.005998883928571429em">g</tspan><tspan x="101.41" y="0" style="letter-spacing:-0.00004650297619047619em">rund</tspan></text><text transform="translate(492.92 430.5)" style="font-size:21px;font-family:MyriadPro-Regular, Myriad Pro">Hausn<tspan x="55.36" y="0" style="letter-spacing:-0.052990141369047616em">r</tspan><tspan x="61.11" y="0">.:</tspan></text><rect x="577" y="407" width="408" height="33" style="fill:#f2f2f2;stroke:#000;stroke-miterlimit:10;stroke-width:2px"/><text transform="translate(585.22 431.59)" style="font-size:21px;font-family:MyriadPro-Regular, Myriad Pro">3</text><text transform="translate(494.24 555.61)" style="font-size:21px;font-family:MyriadPro-Regular, Myriad Pro"><tspan style="letter-spacing:-0.032970610119047616em">W</tspan><tspan x="17.07" y="0" style="letter-spacing:-0.000023251488095238094em">ei</tspan><tspan x="32.51" y="0" style="letter-spacing:-0.005998883928571429em">t</tspan><tspan x="39.33" y="0">e</tspan><tspan x="49.85" y="0" style="letter-spacing:-0.009974888392857142em">r</tspan><tspan x="56.51" y="0" style="letter-spacing:-0.000023251488095238094em">e </tspan><tspan x="71.48" y="0" style="letter-spacing:0.009974888392857142em">I</tspan><tspan x="76.71" y="0">n</tspan><tspan x="88.37" y="0" style="letter-spacing:-0.012974330357142858em">f</tspan><tspan x="94.23" y="0">os:</tspan></text><rect x="495" y="568" width="491" height="180" style="fill:#f2f2f2;stroke:#000;stroke-miterlimit:10;stroke-width:2px"/><text transform="translate(503.15 592.39)" style="font-size:21px;font-family:MyriadPro-Regular, Myriad Pro">Eingang ist auf der <tspan x="167.2" y="0" style="letter-spacing:0.00999813988095238em">H</tspan><tspan x="181.1" y="0">i</tspan><tspan x="186.01" y="0" style="letter-spacing:-0.003999255952380952em">n</tspan><tspan x="197.59" y="0" style="letter-spacing:-0.005998883928571429em">t</tspan><tspan x="204.41" y="0">ersei</tspan><tspan x="245.55" y="0" style="letter-spacing:-0.005998883928571429em">t</tspan><tspan x="252.37" y="0" style="letter-spacing:-0.011997767857142858em">e</tspan><tspan x="262.64" y="0">, </tspan><tspan x="271.44" y="0" style="letter-spacing:-0.00999813988095238em">w</tspan><tspan x="286.69" y="0">enige </tspan><tspan x="340.49" y="0" style="letter-spacing:-0.025971912202380952em">P</tspan><tspan x="351.11" y="0">a</tspan><tspan x="361.24" y="0" style="letter-spacing:0.003999255952380952em">r</tspan><tspan x="368.19" y="0" style="letter-spacing:0.016996837797619048em">k</tspan><tspan x="378.39" y="0" style="letter-spacing:-0.000023251488095238094em">pl</tspan><tspan x="395.3" y="0" style="letter-spacing:-0.003999255952380952em">ä</tspan><tspan x="405.34" y="0">t</tspan><tspan x="412.29" y="0" style="letter-spacing:-0.006975446428571429em">z</tspan><tspan x="421.13" y="0" style="letter-spacing:-0.000023251488095238094em">e </tspan><tspan x="436.1" y="0" style="letter-spacing:-0.00999813988095238em">v</tspan><tspan x="445.99" y="0">or</tspan><tspan x="0" y="25.2">O</tspan><tspan x="14.47" y="25.2" style="letter-spacing:0.023995535714285716em">r</tspan><tspan x="21.84" y="25.2" style="letter-spacing:-0.002976190476190476em">t</tspan><tspan x="28.73" y="25.2">, die</tspan><tspan x="64.8" y="25.2" style="letter-spacing:-0.03599330357142857em"> </tspan><tspan x="68.5" y="25.2" style="letter-spacing:-0.032970610119047616em">V</tspan><tspan x="79.53" y="25.2">o</tspan><tspan x="91.05" y="25.2" style="letter-spacing:-0.009974888392857142em">r</tspan><tspan x="97.71" y="25.2">de</tspan><tspan x="120.08" y="25.2" style="letter-spacing:0.023995535714285716em">r</tspan><tspan x="127.45" y="25.2">tür muss am </tspan><tspan x="239.54" y="25.2" style="letter-spacing:-0.006975446428571429em">E</tspan><tspan x="249.73" y="25.2" style="letter-spacing:-0.00999813988095238em">v</tspan><tspan x="259.62" y="25.2">e</tspan><tspan x="270.14" y="25.2" style="letter-spacing:-0.003999255952380952em">n</tspan><tspan x="281.71" y="25.2">ttag </tspan><tspan x="321.93" y="25.2" style="letter-spacing:-0.009974888392857142em">v</tspan><tspan x="331.82" y="25.2">e</tspan><tspan x="342.34" y="25.2" style="letter-spacing:0.003999255952380952em">r</tspan><tspan x="349.29" y="25.2">mutlich</tspan><tspan x="0" y="50.4">ausgehängt </tspan><tspan x="108.84" y="50.4" style="letter-spacing:-0.00999813988095238em">w</tspan><tspan x="124.09" y="50.4" style="letter-spacing:-0.000023251488095238094em">e</tspan><tspan x="134.61" y="50.4" style="letter-spacing:-0.009974888392857142em">r</tspan><tspan x="141.27" y="50.4">den</tspan></text><text transform="translate(493.92 473.5)" style="font-size:21px;font-family:MyriadPro-Regular, Myriad Pro">PLZ:</text><rect x="542" y="450" width="444" height="33" style="fill:#f2f2f2;stroke:#000;stroke-miterlimit:10;stroke-width:2px"/><text transform="translate(550.22 474.59)" style="font-size:21px;font-family:MyriadPro-Regular, Myriad Pro">54424</text><text transform="translate(493.92 516.5)" style="font-size:21px;font-family:MyriadPro-Regular, Myriad Pro">O<tspan x="14.47" y="0" style="letter-spacing:0.023995535714285716em">r</tspan><tspan x="21.84" y="0" style="letter-spacing:0.000023251488095238094em">t:</tspan></text><rect x="539" y="493" width="447" height="33" style="fill:#f2f2f2;stroke:#000;stroke-miterlimit:10;stroke-width:2px"/><text transform="translate(547.22 517.59)" style="font-size:21px;font-family:MyriadPro-Regular, Myriad Pro"><tspan style="letter-spacing:-0.01502046130952381em">L</tspan><tspan x="9.6" y="0">ückenbu</tspan><tspan x="86.12" y="0" style="letter-spacing:-0.00804501488095238em">r</tspan><tspan x="92.82" y="0">g</tspan></text><text transform="translate(1001.92 113.5)" style="font-size:21px;font-family:MyriadPro-Regular, Myriad Pro"><tspan style="letter-spacing:0.00999813988095238em">H</tspan><tspan x="13.9" y="0" style="letter-spacing:-0.000023251488095238094em">ier kön</tspan><tspan x="73.69" y="0" style="letter-spacing:-0.003999255952380952em">n</tspan><tspan x="85.26" y="0" style="letter-spacing:-0.005998883928571429em">t</tspan><tspan x="92.08" y="0">e e</tspan><tspan x="117.58" y="0" style="letter-spacing:-0.00999813988095238em">v</tspan><tspan x="127.47" y="0">e</tspan><tspan x="137.99" y="0" style="letter-spacing:-0.003999255952380952em">n</tspan><tspan x="149.56" y="0">tuell eine </tspan><tspan x="235.03" y="0" style="letter-spacing:0.003999255952380952em">B</tspan><tspan x="246.49" y="0">esch</tspan><tspan x="286.39" y="0" style="letter-spacing:-0.009974888392857142em">r</tspan><tspan x="293.05" y="0">eibung zu</tspan><tspan x="0" y="25.2">dem Eingabe</tspan><tspan x="115.56" y="25.2" style="letter-spacing:-0.012974330357142858em">f</tspan><tspan x="121.42" y="25.2">eld s</tspan><tspan x="161.51" y="25.2" style="letter-spacing:-0.005998883928571429em">t</tspan><tspan x="168.33" y="25.2">ehen, auf das aktuell der</tspan><tspan x="0" y="50.4" style="letter-spacing:0.005998883928571429em">M</tspan><tspan x="17.01" y="50.4" style="letter-spacing:-0.000023251488095238094em">aus</tspan><tspan x="47.02" y="50.4" style="letter-spacing:-0.006998697916666667em">z</tspan><tspan x="55.86" y="50.4">eiger </tspan><tspan x="104.87" y="50.4" style="letter-spacing:-0.006998697916666667em">z</tspan><tspan x="113.71" y="50.4">eig</tspan><tspan x="140.89" y="50.4" style="letter-spacing:-0.0029994419642857145em">t</tspan><tspan x="147.77" y="50.4">. Die D</tspan><tspan x="204.43" y="50.4" style="letter-spacing:-0.00402250744047619em">a</tspan><tspan x="214.47" y="50.4" style="letter-spacing:-0.00597563244047619em">t</tspan><tspan x="221.29" y="50.4" style="letter-spacing:-0.000023251488095238094em">en zur </tspan><tspan x="279.8" y="50.4" style="letter-spacing:-0.013997395833333334em">L</tspan><tspan x="289.42" y="50.4">oc</tspan><tspan x="310.35" y="50.4" style="letter-spacing:-0.003999255952380952em">a</tspan><tspan x="320.39" y="50.4">tion sind</tspan><tspan x="0" y="75.6">eige</tspan><tspan x="37.69" y="75.6" style="letter-spacing:-0.003999255952380952em">n</tspan><tspan x="49.27" y="75.6" style="letter-spacing:0.000023251488095238094em">tlich selbs</tspan><tspan x="135.66" y="75.6" style="letter-spacing:-0.005998883928571429em">t</tspan><tspan x="142.48" y="75.6">e</tspan><tspan x="153" y="75.6" style="letter-spacing:0.003999255952380952em">r</tspan><tspan x="159.95" y="75.6" style="letter-spacing:0.016996837797619048em">k</tspan><tspan x="170.16" y="75.6" style="letter-spacing:-0.000023251488095238094em">lä</tspan><tspan x="185.24" y="75.6" style="letter-spacing:-0.009974888392857142em">r</tspan><tspan x="191.9" y="75.6" style="letter-spacing:-0.000023251488095238094em">en</tspan><tspan x="214.07" y="75.6" style="letter-spacing:-0.009974888392857142em">d</tspan><tspan x="225.7" y="75.6">, bei ande</tspan><tspan x="310.48" y="75.6" style="letter-spacing:-0.009974888392857142em">r</tspan><tspan x="317.14" y="75.6">en El</tspan><tspan x="359.05" y="75.6" style="letter-spacing:0.027994791666666668em">e</tspan><tspan x="370.16" y="75.6">-</tspan><tspan x="0" y="100.8">me</tspan><tspan x="28.03" y="100.8" style="letter-spacing:-0.003976004464285714em">n</tspan><tspan x="39.61" y="100.8" style="letter-spacing:-0.005998883928571429em">t</tspan><tspan x="46.43" y="100.8">en, wie z.</tspan><tspan x="126.08" y="100.8" style="letter-spacing:-0.012974330357142858em">B</tspan><tspan x="137.19" y="100.8">. dem </tspan><tspan x="190.32" y="100.8" style="letter-spacing:-0.006975446428571429em">C</tspan><tspan x="202.35" y="100.8" style="letter-spacing:-0.00402250744047619em">a</tspan><tspan x="212.39" y="100.8" style="letter-spacing:-0.00597563244047619em">t</tspan><tspan x="219.22" y="100.8" style="letter-spacing:-0.000023251488095238094em">e</tspan><tspan x="229.74" y="100.8" style="letter-spacing:0.00402250744047619em">r</tspan><tspan x="236.69" y="100.8" style="letter-spacing:-0.000023251488095238094em">ing kön</tspan><tspan x="302.48" y="100.8" style="letter-spacing:-0.003999255952380952em">n</tspan><tspan x="314.05" y="100.8" style="letter-spacing:-0.005998883928571429em">t</tspan><tspan x="320.88" y="100.8">e die</tspan><tspan x="0" y="126" style="letter-spacing:0.003999255952380952em">B</tspan><tspan x="11.47" y="126">esch</tspan><tspan x="51.37" y="126" style="letter-spacing:-0.009974888392857142em">r</tspan><tspan x="58.02" y="126" style="letter-spacing:-0.000023251488095238094em">eibung alle</tspan><tspan x="155.38" y="126" style="letter-spacing:-0.009974888392857142em">r</tspan><tspan x="162.03" y="126">dings hilf</tspan><tspan x="242.61" y="126" style="letter-spacing:-0.009974888392857142em">r</tspan><tspan x="249.27" y="126" style="letter-spacing:-0.000023251488095238094em">eich sein. </tspan></text><rect x="23" y="404" width="64" height="52" style="fill:#b3b3b3"/><rect x="104" y="405" width="64" height="52" style="fill:#b3b3b3"/><rect x="185" y="406" width="64" height="52" style="fill:#b3b3b3"/><rect x="261" y="406" width="64" height="52" style="fill:#b3b3b3"/><rect x="339" y="406" width="64" height="52" style="fill:#b3b3b3"/><rect x="414" y="406" width="64" height="52" style="fill:#b3b3b3"/><rect x="255" y="53" width="142" height="29" style="fill:#e6e6e6;stroke:#000;stroke-miterlimit:10;stroke-width:2px"/><text transform="translate(276.91 75.16)" style="font-size:21px;font-family:MyriadPro-Regular, Myriad Pro"><tspan style="letter-spacing:0.011997767857142858em">M</tspan><tspan x="17.14" y="0">ita</tspan><tspan x="39.12" y="0" style="letter-spacing:0.003999255952380952em">r</tspan><tspan x="46.07" y="0">bei</tspan><tspan x="73.46" y="0" style="letter-spacing:-0.005998883928571429em">t</tspan><tspan x="80.28" y="0">er</tspan></text><text transform="translate(20.24 531.61)" style="font-size:21px;font-family:MyriadPro-Regular, Myriad Pro"><tspan style="letter-spacing:0.003999255952380952em">B</tspan><tspan x="11.47" y="0">esch</tspan><tspan x="51.37" y="0" style="letter-spacing:-0.009974888392857142em">r</tspan><tspan x="58.02" y="0" style="letter-spacing:-0.000023251488095238094em">eibung:</tspan></text><rect x="23" y="543" width="458" height="173" style="fill:#f2f2f2;stroke:#000;stroke-miterlimit:10;stroke-width:2px"/><text transform="translate(21.5 745.55)" style="font-size:21px;font-family:MyriadPro-Regular, Myriad Pro;letter-spacing:-0.0029994419642857145em">S<tspan x="10.29" y="0" style="letter-spacing:0.000023251488095238094em">t</tspan><tspan x="17.24" y="0" style="letter-spacing:-0.00402250744047619em">a</tspan><tspan x="27.28" y="0" style="letter-spacing:0.000023251488095238094em">tus:</tspan></text><text transform="translate(87.94 744.55)" style="font-size:21px;fill:#c47c17;font-family:MyriadPro-Regular, Myriad Pro">gepla<tspan x="49.29" y="0" style="letter-spacing:-0.003999255952380952em">n</tspan><tspan x="60.86" y="0">t</tspan></text></svg>